<svg xmlns="http://www.w3.org/2000/svg" id="e87afe9f-7219-4073-b20e-7422630566c2" data-name="Layer 1" width="122.6834" height="122.6839" viewBox="0 0 122.6834 122.6839"><path d="M93.7,29.83C72.8065,8.937,51.5525-3.6834,46.2275,1.6416c-2.99,2.99-.32,11.0048,6.295,21.1572-10.1523-6.6153-18.1667-9.2853-21.157-6.2949s-.3208,11.0035,6.2934,21.1547c-10.1511-6.6142-18.1646-9.2835-21.1548-6.2934s-.32,11.0048,6.295,21.1572c-10.1522-6.6152-18.1667-9.2853-21.157-6.2949-5.325,5.325,7.2953,26.579,28.1884,47.472s42.147,33.5135,47.472,28.1885c2.99-2.99.32-11.0048-6.2949-21.157,10.1522,6.6152,18.1666,9.2854,21.157,6.295s.3206-11.0038-6.2936-21.1552c10.1513,6.6142,18.1648,9.2837,21.155,6.2935s.32-11.0048-6.295-21.1571c10.1523,6.6152,18.1666,9.2852,21.157,6.2948C127.213,71.977,114.593,50.7231,93.7,29.83Z" transform="translate(-0.4234 -0.4229)"></path></svg>