<svg xmlns="http://www.w3.org/2000/svg" id="ecde3777-59c1-4267-a07e-9ce7b9b4cc9c" data-name="Layer 1" width="107" height="90.3248" viewBox="0 0 107 90.3248"><path d="M107,34.6541c0-4.2291-7.5552-8.0082-19.412-10.5093C99.4448,21.6438,107,17.8647,107,13.6356,107,6.1049,83.0472,0,53.5,0S0,6.1049,0,13.6356c0,4.2291,7.5552,8.0082,19.412,10.5092C7.5552,26.6459,0,30.425,0,34.6541s7.5534,8.0073,19.4077,10.5083C7.5534,47.6635,0,51.4421,0,55.6707S7.5553,63.6789,19.4121,66.18C7.5553,68.6811,0,72.46,0,76.6893,0,84.22,23.9528,90.3248,53.5,90.3248S107,84.22,107,76.6893c0-4.2292-7.5553-8.0082-19.4121-10.5093C99.4447,63.6789,107,59.9,107,55.6707s-7.5534-8.0072-19.4077-10.5083C99.4466,42.6614,107,38.8827,107,34.6541Z"></path></svg>