<svg xmlns="http://www.w3.org/2000/svg" id="f8e2cde3-a3ed-4f80-bd03-97b96c48c07d" data-name="Layer 1" width="130" height="130" viewBox="0 0 130 130"><polygon points="88.112 68.661 130 65 88.112 61.339 126.819 44.914 85.849 54.377 117.586 26.794 81.546 48.454 103.206 12.414 75.623 44.15 85.086 3.181 68.661 41.888 65 0 61.339 41.888 44.914 3.181 54.377 44.15 26.794 12.414 48.454 48.454 12.414 26.794 44.15 54.377 3.181 44.914 41.888 61.339 0 65 41.888 68.661 3.181 85.086 44.15 75.623 12.414 103.206 48.454 81.546 26.794 117.586 54.377 85.849 44.914 126.819 61.339 88.112 65 130 68.661 88.112 85.086 126.819 75.623 85.849 103.206 117.586 81.546 81.546 117.586 103.206 85.849 75.623 126.819 85.086 88.112 68.661"></polygon></svg>