<svg xmlns="http://www.w3.org/2000/svg" viewBox="0 0 128 128"  xmlns:v="https://vecta.io/nano"><linearGradient id="A" gradientUnits="userSpaceOnUse" x1="2.363" y1="125.638" x2="125.638" y2="2.362"><stop offset="0" stop-color="#225e64"/><stop offset="0" stop-color="#187895"/><stop offset="1" stop-color="#1caab7"/></linearGradient><path fill="url(#A)" d="M119.9 128H8.1c-4.5 0-8.1-3.6-8.1-8.1V8.1C0 3.6 3.6 0 8.1 0h111.8c4.5 0 8.1 3.6 8.1 8.1v111.8c0 4.5-3.6 8.1-8.1 8.1z"/><g opacity=".9" fill="#fff"><path d="M84.6 68.9l-10-12.5 6.1-4.8 10 12.4z"/><path d="M80.7 76.4l-6-4.8 10-12.5 6 4.9zm-37.3-7.5L37.3 64l10-12.4 6.1 4.8z"/><path d="M47.3 76.4L37.3 64l6-4.9 10 12.5zm61.4 22.4H19.3V29.2h89.4v69.6zM29.4 88.7h69.2V39.3H29.4v49.4z"/></g></svg>