<svg width="145" height="29" viewBox="0 0 145 29" fill="none" xmlns="http://www.w3.org/2000/svg">
<path d="M26.5097 16.6886L22.4805 11.7051L24.9192 9.69043L28.9485 14.674L26.5097 16.6886Z" fill="#157592"/>
<path d="M24.9192 19.7638L22.4805 17.7492L26.5097 12.7656L28.9485 14.7803L24.9192 19.7638Z" fill="#157592"/>
<path d="M9.75517 16.6886L7.31641 14.674L11.3457 9.69043L13.7844 11.7051L9.75517 16.6886Z" fill="#157592"/>
<path d="M11.3457 19.7638L7.31641 14.7803L9.75517 12.7656L13.7844 17.7492L11.3457 19.7638Z" fill="#157592"/>
<path d="M36.2634 28.8827H0V0.571777H36.2634V28.8827ZM4.1353 24.7474H32.2341V4.70708H4.1353V24.7474Z" fill="#157592"/>
<path d="M62.5608 5.76738L59.3798 24.3232C58.8496 24.3232 58.4255 24.4292 58.1074 24.4292H56.835C56.638 24.4398 56.4412 24.4074 56.258 24.3341C56.0749 24.2609 55.91 24.1486 55.7746 24.0051C55.4738 23.6441 55.289 23.2006 55.2445 22.7327L54.7143 19.8698C54.5022 18.5974 54.1841 16.2647 53.866 13.0837C53.5479 16.3707 53.2298 18.5974 53.0178 19.8698L52.2755 24.3232C51.3595 24.4135 50.4389 24.4489 49.5187 24.4292C49.3375 24.4384 49.1567 24.4048 48.9909 24.3311C48.8251 24.2574 48.679 24.1457 48.5644 24.0051C48.2832 23.6728 48.0997 23.2691 48.0342 22.8387C47.7161 21.0362 47.1859 18.1733 46.5497 14.3561C45.9135 10.5389 45.4894 7.88804 45.2773 6.61564V6.29754C45.2773 6.19151 45.2773 5.97944 45.3834 5.97944C45.5423 5.88326 45.7299 5.84575 45.9135 5.87341H48.3523L49.6247 14.5681C50.0235 16.8467 50.2714 19.1491 50.3669 21.4603H50.579C50.685 19.3396 50.8971 17.0069 51.2152 14.5681L52.3816 7.46391C52.3678 7.23246 52.4438 7.0046 52.5936 6.82771C52.6588 6.75283 52.7409 6.69454 52.8331 6.65766C52.9253 6.62078 53.025 6.60638 53.1238 6.61564H55.2445L56.6229 14.5681C56.9865 16.8515 57.2342 19.1519 57.3651 21.4603H57.5772C57.6832 19.2336 57.8953 16.9009 58.2134 14.5681L59.3798 6.61564C59.366 6.38419 59.442 6.15634 59.5918 5.97944C59.657 5.90456 59.7391 5.84627 59.8313 5.80939C59.9235 5.77252 60.0232 5.75811 60.122 5.76738H62.5608Z" fill="#283F4D"/>
<path d="M71.0422 6.29774C71.7716 6.62043 72.3697 7.18121 72.7387 7.88825C73.2043 8.91931 73.4221 10.045 73.3749 11.1753C73.3749 13.402 72.9508 14.8864 71.9965 15.8407C71.0018 16.7105 69.7116 17.1659 68.3914 17.1131H68.1793V23.7932C68.1793 24.0053 68.1793 24.1113 68.0733 24.2174C67.9672 24.3234 67.6491 24.3234 67.225 24.3234H65.3164V6.29774C65.3164 6.08568 65.3164 5.97964 65.4224 5.87361C65.5285 5.76758 65.6345 5.76758 65.8466 5.76758H68.3914C69.3012 5.76897 70.2019 5.9491 71.0422 6.29774ZM69.6638 13.7201C69.9275 12.79 70.035 11.8225 69.9819 10.8572C70.0177 10.2053 69.9091 9.55359 69.6638 8.94858C69.5825 8.76219 69.4493 8.60312 69.2801 8.49032C69.1109 8.37752 68.9128 8.31575 68.7095 8.31238H67.9672V14.4623H68.4974C68.7461 14.4826 68.9947 14.421 69.2052 14.2871C69.4158 14.1531 69.5768 13.954 69.6638 13.7201Z" fill="#283F4D"/>
<path d="M80.5854 23.8995C79.8558 23.1849 79.3729 22.2564 79.2069 21.2487C78.8133 19.4023 78.6354 17.5164 78.6768 15.6289C78.6768 8.84277 80.4793 5.44971 83.9784 5.44971C85.0388 5.44971 85.675 5.55574 85.9931 5.87384C86.1612 6.01778 86.2958 6.19678 86.3874 6.39828C86.479 6.59977 86.5253 6.81888 86.5232 7.04021C86.5233 7.6658 86.3781 8.28286 86.0991 8.84277C85.7033 8.5447 85.2156 8.39464 84.7207 8.41864C84.2648 8.44692 83.8256 8.60047 83.4514 8.8624C83.0772 9.12433 82.7826 9.48445 82.6 9.90311C81.9159 11.6565 81.6263 13.5389 81.7517 15.4168C81.7496 16.6217 81.8205 17.8256 81.9638 19.022C81.986 19.6738 82.2081 20.3031 82.6 20.8245C82.7655 20.994 82.9635 21.1283 83.1821 21.2194C83.4008 21.3105 83.6355 21.3565 83.8724 21.3547C84.571 21.4147 85.2719 21.2671 85.887 20.9306C86.1394 21.4624 86.2836 22.0391 86.3112 22.6271C86.3018 22.925 86.2196 23.2161 86.0718 23.4749C85.9239 23.7337 85.7148 23.9523 85.4629 24.1116C84.7434 24.4848 83.9403 24.6674 83.1302 24.6417C82.2268 24.6538 81.3406 24.3953 80.5854 23.8995Z" fill="#283F4D"/>
<path d="M89.3861 24.3236C88.8455 24.085 88.3984 23.6751 88.1137 23.1573C87.7322 22.3273 87.5506 21.4194 87.5835 20.5064C87.4744 19.312 87.7734 18.1159 88.4318 17.1134C88.7048 16.794 89.0476 16.5418 89.4338 16.3763C89.8199 16.2108 90.239 16.1365 90.6585 16.1591C90.9452 16.1481 91.2317 16.1839 91.5068 16.2651C91.7958 16.3535 92.0791 16.4597 92.355 16.5832V14.7806C92.3651 14.517 92.2908 14.257 92.143 14.0384C91.8846 13.8924 91.5914 13.8191 91.2947 13.8263C90.7589 13.8448 90.2262 13.9158 89.7042 14.0384C89.1564 14.1026 88.6207 14.2454 88.1137 14.4625C87.8613 13.9307 87.7172 13.354 87.6896 12.766C87.6731 12.5828 87.7099 12.3987 87.7956 12.2358C87.9017 12.0238 87.9016 11.9177 88.0077 11.8117C88.4357 11.5621 88.9011 11.3831 89.3861 11.2815C90.2211 11.0972 91.077 11.0258 91.9309 11.0695C92.3835 11.0029 92.8451 11.0348 93.2843 11.1629C93.7235 11.291 94.1299 11.5123 94.4757 11.8117C94.7671 12.1625 94.9833 12.5693 95.111 13.0071C95.2387 13.4448 95.2751 13.9041 95.218 14.3565V15.6289C95.218 19.9763 95.2179 22.7331 95.1119 24.1116C93.9318 24.7128 92.6184 25.0047 91.2947 24.9598C90.5525 24.6417 89.9163 24.5357 89.3861 24.3236ZM92.249 21.8849V18.4918C92.0237 18.3592 91.7682 18.2862 91.5068 18.2797C91.3555 18.2724 91.2053 18.3085 91.0738 18.3836C90.9423 18.4587 90.835 18.5699 90.7645 18.7039C90.5511 19.2423 90.4781 19.8261 90.5525 20.4004C90.5346 20.8692 90.6066 21.3371 90.7645 21.7788C90.8706 22.0969 91.0827 22.203 91.5068 22.203C91.9309 22.203 92.143 22.0969 92.249 21.8849Z" fill="#283F4D"/>
<path d="M97.126 12.0236C98.2042 11.2435 99.5065 10.8343 100.837 10.8573C101.32 10.7912 101.81 10.9044 102.216 11.1754C102.337 11.3215 102.428 11.4908 102.483 11.673C102.538 11.8552 102.555 12.0466 102.534 12.2357C102.531 12.8158 102.423 13.3906 102.216 13.9322C101.911 13.8115 101.589 13.7399 101.261 13.7202C101.044 13.7034 100.825 13.7398 100.625 13.8262C100.435 13.9081 100.257 14.0151 100.095 14.1443V23.8994C100.095 24.1114 100.095 24.2175 99.9889 24.3235C99.8828 24.4295 99.5647 24.4295 99.1406 24.4295H97.126V12.0236Z" fill="#283F4D"/>
<path d="M104.868 24.1115C104.521 23.8889 104.228 23.5932 104.008 23.2451C103.788 22.8971 103.647 22.5052 103.595 22.0969C103.241 20.6405 103.098 19.1406 103.171 17.6435C103.171 13.084 104.655 10.7513 107.624 10.7513C108.45 10.7042 109.269 10.9275 109.957 11.3875C110.293 11.6209 110.579 11.9195 110.798 12.2656C111.017 12.6117 111.163 12.9982 111.23 13.4021C111.575 14.752 111.718 16.1456 111.654 17.5374C111.654 20.0822 111.336 21.7788 110.593 22.9451C110.229 23.4711 109.735 23.8939 109.159 24.1726C108.583 24.4513 107.945 24.5764 107.306 24.5356C106.469 24.6399 105.62 24.4922 104.868 24.1115ZM107.943 21.8848C108.101 21.4755 108.208 21.0481 108.261 20.6124C108.362 19.6617 108.398 18.7051 108.367 17.7495C108.398 16.7939 108.362 15.8373 108.261 14.8866C108.314 14.4378 108.201 13.985 107.943 13.6142C107.88 13.5038 107.786 13.4146 107.673 13.3579C107.56 13.3012 107.432 13.2797 107.306 13.2961C106.988 13.2961 106.67 13.6142 106.564 14.2504C106.298 15.3966 106.191 16.574 106.246 17.7495C106.213 18.7404 106.248 19.7324 106.352 20.7184C106.405 21.1541 106.512 21.5815 106.67 21.9908C106.732 22.1012 106.826 22.1904 106.94 22.2471C107.053 22.3038 107.181 22.3253 107.306 22.3089C107.435 22.2847 107.558 22.2347 107.668 22.1618C107.777 22.0889 107.871 21.9947 107.943 21.8848Z" fill="#283F4D"/>
<path d="M114.091 23.5809C113.483 22.7144 113.184 21.6687 113.242 20.6119V11.5991C113.242 11.387 113.242 11.281 113.349 11.175C113.455 11.0689 113.773 11.0689 114.197 11.0689H116.211V20.718C116.207 21.0482 116.279 21.375 116.423 21.6723C116.53 21.8843 116.742 21.9904 117.166 21.9904C117.544 21.9989 117.915 21.8875 118.226 21.6723V11.4931C118.226 11.281 118.226 11.175 118.332 11.0689C118.438 10.9629 118.65 10.9629 119.18 10.9629H121.195V23.4748C120.631 23.804 120.025 24.0538 119.392 24.2171C118.705 24.4262 117.99 24.5334 117.272 24.5352C116.704 24.6155 116.126 24.5718 115.577 24.407C115.027 24.2423 114.52 23.9604 114.091 23.5809Z" fill="#283F4D"/>
<path d="M122.787 23.0511C122.818 22.483 123.001 21.9338 123.317 21.4606C124.031 21.8472 124.838 22.0306 125.65 21.9907C126.03 22.016 126.407 21.9031 126.71 21.6726C126.922 21.4418 127.036 21.1377 127.028 20.8244C127.02 20.265 126.791 19.7314 126.392 19.3399L124.059 16.9011C123.645 16.4751 123.321 15.9703 123.105 15.4167C122.91 14.9823 122.802 14.514 122.787 14.0382C122.758 13.5769 122.84 13.1153 123.024 12.6914C123.208 12.2676 123.49 11.8933 123.847 11.5995C124.84 10.9187 126.044 10.6177 127.24 10.7512C128.156 10.6792 129.073 10.8627 129.891 11.2814C130.082 11.4118 130.239 11.5855 130.349 11.7882C130.46 11.9909 130.521 12.2169 130.527 12.4477C130.536 12.6995 130.5 12.9508 130.421 13.19C130.315 13.402 130.209 13.7201 129.997 13.8262C129.283 13.4395 128.476 13.2561 127.664 13.296C126.816 13.296 126.392 13.6141 126.392 14.1443C126.379 14.2434 126.391 14.3442 126.429 14.4371C126.466 14.5299 126.526 14.6116 126.604 14.6744C126.779 14.9513 126.993 15.2014 127.24 15.4167L129.149 17.4313C129.563 17.9181 129.919 18.4519 130.209 19.0218C130.436 19.5578 130.545 20.1365 130.527 20.7183C130.548 21.2354 130.454 21.7507 130.253 22.2273C130.051 22.704 129.746 23.1301 129.361 23.4752C128.455 24.1854 127.331 24.5601 126.18 24.5355C123.847 24.6416 122.787 24.1114 122.787 23.0511Z" fill="#283F4D"/>
<path d="M139.116 21.0366C139.257 21.699 139.328 22.3742 139.328 23.0513C139.328 23.5814 139.01 24.0056 138.268 24.2176C137.422 24.5384 136.52 24.6827 135.617 24.6418C135.032 24.6735 134.447 24.565 133.912 24.3253C133.378 24.0855 132.908 23.7214 132.542 23.2633C131.8 22.309 131.482 20.7185 131.482 18.3858C131.415 16.8052 131.63 15.2252 132.118 13.7203C132.383 12.8206 132.943 12.0363 133.708 11.4936C134.453 11.0841 135.3 10.8999 136.147 10.9635C138.374 10.9635 139.54 12.4479 139.54 15.3108C139.558 16.5905 139.452 17.8689 139.222 19.128C137.716 19.3758 136.189 19.4823 134.663 19.4461C134.624 20.1093 134.771 20.7701 135.087 21.3547C135.299 21.7789 135.723 21.8849 136.359 21.8849C137.314 21.7343 138.242 21.4487 139.116 21.0366ZM134.875 14.2505C134.617 15.1455 134.509 16.0771 134.557 17.0074C135.235 17.0274 135.912 16.956 136.571 16.7953C136.679 16.3443 136.715 15.879 136.677 15.4169C136.709 14.878 136.637 14.3382 136.465 13.8264C136.398 13.6897 136.291 13.5762 136.159 13.5007C136.027 13.4251 135.875 13.3908 135.723 13.4022C135.405 13.4022 135.087 13.6143 134.875 14.2505Z" fill="#283F4D"/>
<path d="M141.237 6.19142C141.232 5.86115 141.305 5.53437 141.449 5.23712C141.542 5.13363 141.657 5.0516 141.785 4.99669C141.913 4.94178 142.051 4.91528 142.191 4.91902C142.509 4.91902 143.145 4.81299 144.099 4.81299V23.793C144.099 24.005 144.099 24.1111 143.993 24.2171C143.887 24.3231 143.675 24.3231 143.145 24.3231H141.237V6.19142Z" fill="#283F4D"/>
</svg>
