<?xml version="1.0" encoding="utf-8"?>
<!-- Generator: Adobe Illustrator 25.4.1, SVG Export Plug-In . SVG Version: 6.00 Build 0)  -->
<svg version="1.1" id="Layer_1" xmlns="http://www.w3.org/2000/svg" xmlns:xlink="http://www.w3.org/1999/xlink" x="0px" y="0px"
	 viewBox="0 0 687.6 535.2" style="enable-background:new 0 0 687.6 535.2;" xml:space="preserve">
<style type="text/css">
	.st0{fill:#1E1E1E;}
</style>
<g>
	<path class="st0" d="M687.6,535.2H0V0h687.6V535.2z M77.7,457.5h532.2V77.7H77.7V457.5z"/>
</g>
<g>
	<path d="M544.4,277.61l-80.12,80.12c-5.54,5.54-14.49,5.54-19.97,0L431,344.42c-5.54-5.54-5.54-14.49,0-19.97l56.79-56.79
		L431,210.87c-5.54-5.54-5.54-14.49,0-19.97l13.25-13.43c5.54-5.54,14.49-5.54,19.97,0l80.12,80.12
		C549.94,263.12,549.94,272.08,544.4,277.61z"/>
	<path d="M143.45,257.59l80.12-80.12c5.54-5.54,14.49-5.54,19.97,0l13.31,13.31c5.54,5.54,5.54,14.49,0,19.97l-56.79,56.79
		l56.79,56.79c5.54,5.54,5.54,14.49,0,19.97l-13.25,13.43c-5.54,5.54-14.49,5.54-19.97,0l-80.12-80.12
		C137.91,272.08,137.91,263.12,143.45,257.59z"/>
</g>
</svg>
