<?xml version="1.0" encoding="utf-8"?>
<!-- Generator: Adobe Illustrator 25.4.1, SVG Export Plug-In . SVG Version: 6.00 Build 0)  -->
<svg version="1.1" id="Layer_1" xmlns="http://www.w3.org/2000/svg" xmlns:xlink="http://www.w3.org/1999/xlink" x="0px" y="0px"
	 viewBox="0 0 800 400" style="enable-background:new 0 0 800 400;" xml:space="preserve">
<style type="text/css">
	.st0{fill:#F1F0F0;}
	.st1{fill:#767676;}
</style>
<rect y="0" class="st0" width="800" height="400"/>
<g>
	<g>
		<path class="st1" d="M473.8,275.5H326.2c-1.4,0-2.4-1.2-2.4-3v-6c0-1.8,1-3,2.4-3h147.5c1.4,0,2.4,1.2,2.4,3v6
			C476.1,274,475.2,275.5,473.8,275.5z"/>
		<path class="st1" d="M493.4,291.1H306.6c-1.8,0-3-1.2-3-3v-1.5c0-1.8,1.2-3,3-3h186.8c1.8,0,3,1.2,3,3v1.5
			C496.4,289.6,495.2,291.1,493.4,291.1z"/>
		<path class="st1" d="M493.4,303.2H306.6c-1.8,0-3-1.2-3-3v-1.5c0-1.8,1.2-3,3-3h186.8c1.8,0,3,1.2,3,3v1.5
			C496.4,301.7,495.2,303.2,493.4,303.2z"/>
		<g>
			<path class="st1" d="M485.3,95.3H314.7c-6.9,0-12.4,5.4-12.4,12.4v127.1c0,6.9,5.4,12.4,12.4,12.4h170.5
				c6.9,0,12.4-5.4,12.4-12.4V107.7C497.6,101,492.2,95.3,485.3,95.3z M485.3,107.7v90.1l-24.4-22.3c-3.6-3.3-9.3-3.3-13,0.3
				l-24.7,25l-48.5-58.1c-3.6-4.5-10.5-4.5-14.2,0l-45.8,52.7v-87.7H485.3z M432.5,140.2c0-9.3,7.5-17.2,17.2-17.2
				c9.3,0,17.2,7.5,17.2,17.2c0,9.6-7.5,17.2-17.2,17.2C440.4,157.4,432.5,149.8,432.5,140.2z"/>
		</g>
	</g>
	<g>
		<path class="st1" d="M255.9,277H108.4c-1.4,0-2.4-1.2-2.4-3v-6c0-1.8,1-3,2.4-3h147.5c1.4,0,2.4,1.2,2.4,3v6
			C258.3,275.5,257.3,277,255.9,277z"/>
		<path class="st1" d="M275.5,292.6H88.7c-1.8,0-3-1.2-3-3v-1.5c0-1.8,1.2-3,3-3h186.8c1.8,0,3,1.2,3,3v1.5
			C278.5,291.1,277.3,292.6,275.5,292.6z"/>
		<path class="st1" d="M275.5,304.7H88.7c-1.8,0-3-1.2-3-3v-1.5c0-1.8,1.2-3,3-3h186.8c1.8,0,3,1.2,3,3v1.5
			C278.5,303.2,277.3,304.7,275.5,304.7z"/>
		<g>
			<path class="st1" d="M267.4,96.8H96.9c-6.9,0-12.4,5.4-12.4,12.4v127.1c0,6.9,5.4,12.4,12.4,12.4h170.5c6.9,0,12.4-5.4,12.4-12.4
				V109.2C279.7,102.5,274.3,96.8,267.4,96.8z M267.4,109.2v90.1L243,177c-3.6-3.3-9.3-3.3-13,0.3l-24.7,25l-48.5-58.1
				c-3.6-4.5-10.5-4.5-14.2,0l-45.8,52.7v-87.7H267.4z M214.6,141.7c0-9.3,7.5-17.2,17.2-17.2c9.3,0,17.2,7.5,17.2,17.2
				c0,9.6-7.5,17.2-17.2,17.2C222.5,158.9,214.6,151.3,214.6,141.7z"/>
		</g>
	</g>
	<g>
		<path class="st1" d="M691.6,277H544.1c-1.4,0-2.4-1.2-2.4-3v-6c0-1.8,1-3,2.4-3h147.5c1.4,0,2.4,1.2,2.4,3v6
			C694,275.5,693.1,277,691.6,277z"/>
		<path class="st1" d="M711.3,292.6H524.5c-1.8,0-3-1.2-3-3v-1.5c0-1.8,1.2-3,3-3h186.8c1.8,0,3,1.2,3,3v1.5
			C714.3,291.1,713.1,292.6,711.3,292.6z"/>
		<path class="st1" d="M711.3,304.7H524.5c-1.8,0-3-1.2-3-3v-1.5c0-1.8,1.2-3,3-3h186.8c1.8,0,3,1.2,3,3v1.5
			C714.3,303.2,713.1,304.7,711.3,304.7z"/>
		<g>
			<path class="st1" d="M703.1,96.8H532.6c-6.9,0-12.4,5.4-12.4,12.4v127.1c0,6.9,5.4,12.4,12.4,12.4h170.5
				c6.9,0,12.4-5.4,12.4-12.4V109.2C715.5,102.5,710.1,96.8,703.1,96.8z M703.1,109.2v90.1L678.7,177c-3.6-3.3-9.3-3.3-13,0.3
				l-24.7,25l-48.5-58.1c-3.6-4.5-10.5-4.5-14.2,0l-45.8,52.7v-87.7H703.1z M650.4,141.7c0-9.3,7.5-17.2,17.2-17.2
				c9.3,0,17.2,7.5,17.2,17.2c0,9.6-7.5,17.2-17.2,17.2C658.3,158.9,650.4,151.3,650.4,141.7z"/>
		</g>
	</g>
</g>
</svg>
