<?xml version="1.0" encoding="utf-8"?>
<!-- Generator: Adobe Illustrator 26.3.1, SVG Export Plug-In . SVG Version: 6.00 Build 0)  -->
<svg version="1.1" id="Layer_1" xmlns="http://www.w3.org/2000/svg" xmlns:xlink="http://www.w3.org/1999/xlink" x="0px" y="0px"
	 viewBox="0 0 80 80" style="enable-background:new 0 0 80 80;" xml:space="preserve">
<style type="text/css">
	.st0{fill:none;stroke:#B9BCBF;stroke-miterlimit:10;}
	.st1{fill:#63666A;}
	.st2{fill:#A1AFB5;}
</style>
<path class="st0" d="M0.5,0.5h79v79h-79V0.5z"/>
<g>
	<g>
		<path class="st1" d="M19.4,67.3v-7.8h2.3c0.7,0,1.3,0.2,1.8,0.5c0.5,0.3,0.9,0.7,1.2,1.3s0.4,1.2,0.4,1.9v0.4c0,0.7-0.1,1.4-0.4,2
			c-0.3,0.6-0.7,1-1.3,1.3c-0.5,0.3-1.2,0.5-1.9,0.5H19.4z M20.7,60.6v5.6h0.9c0.7,0,1.3-0.2,1.6-0.7c0.4-0.4,0.6-1.1,0.6-1.9v-0.4
			c0-0.8-0.2-1.5-0.6-1.9c-0.4-0.4-0.9-0.7-1.6-0.7H20.7z"/>
		<path class="st1" d="M26.5,60c0-0.2,0.1-0.4,0.2-0.5c0.1-0.1,0.3-0.2,0.5-0.2s0.4,0.1,0.5,0.2c0.1,0.1,0.2,0.3,0.2,0.5
			c0,0.2-0.1,0.4-0.2,0.5s-0.3,0.2-0.5,0.2s-0.4-0.1-0.5-0.2C26.6,60.4,26.5,60.2,26.5,60z M27.9,67.3h-1.3v-5.8h1.3V67.3z"/>
		<path class="st1" d="M32.7,65.7c0-0.2-0.1-0.4-0.3-0.5c-0.2-0.1-0.5-0.2-1-0.3c-0.4-0.1-0.8-0.2-1.1-0.4c-0.7-0.3-1-0.8-1-1.4
			c0-0.5,0.2-0.9,0.6-1.3s1-0.5,1.6-0.5c0.7,0,1.3,0.2,1.7,0.5c0.4,0.3,0.6,0.8,0.6,1.3h-1.3c0-0.2-0.1-0.5-0.3-0.6
			c-0.2-0.2-0.4-0.2-0.7-0.2c-0.3,0-0.5,0.1-0.7,0.2c-0.2,0.1-0.3,0.3-0.3,0.5c0,0.2,0.1,0.4,0.3,0.5c0.2,0.1,0.5,0.2,1,0.3
			c0.5,0.1,0.9,0.2,1.2,0.4c0.3,0.2,0.5,0.3,0.7,0.6c0.1,0.2,0.2,0.5,0.2,0.8c0,0.5-0.2,0.9-0.6,1.3s-1,0.5-1.7,0.5
			c-0.5,0-0.9-0.1-1.3-0.3s-0.7-0.4-0.9-0.7s-0.3-0.6-0.3-1h1.3c0,0.3,0.1,0.5,0.3,0.7c0.2,0.2,0.5,0.2,0.9,0.2
			c0.3,0,0.6-0.1,0.8-0.2S32.7,65.9,32.7,65.7z"/>
		<path class="st1" d="M38.7,67.3c-0.1-0.1-0.1-0.3-0.2-0.5c-0.4,0.4-0.9,0.7-1.5,0.7c-0.6,0-1.1-0.2-1.4-0.5
			c-0.4-0.3-0.6-0.7-0.6-1.2c0-0.6,0.2-1.1,0.7-1.4c0.5-0.3,1.1-0.5,2-0.5h0.8v-0.4c0-0.3-0.1-0.5-0.3-0.7s-0.4-0.3-0.8-0.3
			c-0.3,0-0.5,0.1-0.7,0.2s-0.3,0.3-0.3,0.6h-1.3c0-0.3,0.1-0.6,0.3-0.9s0.5-0.5,0.9-0.7c0.4-0.2,0.8-0.2,1.2-0.2
			c0.7,0,1.2,0.2,1.6,0.5s0.6,0.8,0.6,1.4V66c0,0.5,0.1,0.9,0.2,1.3v0.1H38.7z M37.3,66.4c0.3,0,0.5-0.1,0.7-0.2
			c0.2-0.1,0.4-0.3,0.5-0.5v-1.1h-0.7c-0.5,0-0.8,0.1-1.1,0.3c-0.2,0.2-0.4,0.4-0.4,0.7c0,0.3,0.1,0.5,0.2,0.6
			C36.8,66.3,37,66.4,37.3,66.4z"/>
		<path class="st1" d="M46.4,64.5c0,0.9-0.2,1.6-0.6,2.2c-0.4,0.5-1,0.8-1.7,0.8c-0.7,0-1.2-0.2-1.6-0.7l-0.1,0.6h-1.2v-8.2h1.3v3
			c0.4-0.4,0.9-0.7,1.5-0.7c0.7,0,1.3,0.3,1.7,0.8C46.2,62.7,46.4,63.4,46.4,64.5L46.4,64.5z M45.1,64.4c0-0.6-0.1-1.1-0.3-1.4
			c-0.2-0.3-0.5-0.5-1-0.5c-0.6,0-1,0.2-1.2,0.7v2.4c0.2,0.5,0.6,0.8,1.2,0.8c0.4,0,0.7-0.2,0.9-0.5c0.2-0.3,0.3-0.8,0.3-1.4V64.4z"
			/>
		<path class="st1" d="M49,67.3h-1.3v-8.2H49V67.3z"/>
		<path class="st1" d="M53.1,67.4c-0.8,0-1.5-0.3-2-0.8c-0.5-0.5-0.8-1.2-0.8-2.1v-0.2c0-0.6,0.1-1.1,0.3-1.6
			c0.2-0.5,0.5-0.8,0.9-1.1c0.4-0.3,0.9-0.4,1.4-0.4c0.8,0,1.4,0.3,1.8,0.8c0.4,0.5,0.6,1.2,0.6,2.1v0.5h-3.8c0,0.5,0.2,0.9,0.5,1.1
			s0.6,0.4,1.1,0.4c0.6,0,1.1-0.2,1.5-0.7l0.7,0.7c-0.2,0.3-0.5,0.6-0.9,0.8S53.6,67.4,53.1,67.4z M52.9,62.4
			c-0.4,0-0.6,0.1-0.9,0.4c-0.2,0.3-0.4,0.6-0.4,1h2.5v-0.1c0-0.4-0.1-0.8-0.3-1S53.3,62.4,52.9,62.4z"/>
		<path class="st1" d="M56.3,64.4c0-0.9,0.2-1.6,0.6-2.2c0.4-0.5,1-0.8,1.7-0.8c0.6,0,1.1,0.2,1.5,0.6v-3h1.3v8.2h-1.2l-0.1-0.6
			c-0.4,0.5-0.9,0.7-1.6,0.7c-0.7,0-1.2-0.3-1.7-0.8C56.5,66.1,56.3,65.3,56.3,64.4z M57.6,64.5c0,0.6,0.1,1.1,0.3,1.4
			s0.6,0.5,1,0.5c0.5,0,0.9-0.2,1.2-0.7v-2.5c-0.2-0.5-0.6-0.7-1.2-0.7c-0.4,0-0.7,0.2-1,0.5S57.6,63.8,57.6,64.5z"/>
	</g>
	<path class="st2" d="M40,12.6c-11.3,0-20.5,9.2-20.5,20.5S28.7,53.7,40,53.7s20.5-9.2,20.5-20.5S51.3,12.6,40,12.6z M23.8,33.1
		c0-3.7,1.3-7.1,3.3-9.8L49.8,46c-2.7,2.1-6.1,3.3-9.8,3.3C31,49.3,23.8,42.1,23.8,33.1L23.8,33.1z M52.9,42.9L30.2,20.2
		c2.7-2.1,6.1-3.3,9.8-3.3c9,0,16.2,7.3,16.2,16.2C56.2,36.8,55,40.2,52.9,42.9L52.9,42.9z"/>
</g>
</svg>
