<?xml version="1.0" encoding="utf-8"?>
<!-- Generator: Adobe Illustrator 26.3.1, SVG Export Plug-In . SVG Version: 6.00 Build 0)  -->
<svg version="1.1" id="Layer_1" xmlns="http://www.w3.org/2000/svg" xmlns:xlink="http://www.w3.org/1999/xlink" x="0px" y="0px"
	 viewBox="0 0 80 80" style="enable-background:new 0 0 80 80;" xml:space="preserve">
<style type="text/css">
	.st0{fill:none;stroke:#B8BBBE;stroke-miterlimit:10;}
	.st1{fill:#62666A;}
	.st2{fill:#A1AEB5;}
	.st3{fill:#FFFFFF;}
</style>
<g>
	<path class="st0" d="M0.5,0.5h79v79h-79V0.5z"/>
	<g>
		<path class="st1" d="M20.1,65.9h3.6V67h-4.9v-7.8h1.4V65.9z"/>
		<path class="st1" d="M24.7,59.6c0-0.2,0.1-0.4,0.2-0.5c0.1-0.1,0.3-0.2,0.5-0.2s0.4,0.1,0.5,0.2c0.1,0.1,0.2,0.3,0.2,0.5
			c0,0.2-0.1,0.4-0.2,0.5s-0.3,0.2-0.5,0.2s-0.4-0.1-0.5-0.2C24.8,60,24.7,59.8,24.7,59.6z M26.1,67h-1.3v-5.8h1.3V67z"/>
		<path class="st1" d="M27.4,64c0-0.9,0.2-1.6,0.6-2.2c0.4-0.5,1-0.8,1.7-0.8c0.7,0,1.2,0.2,1.6,0.7l0.1-0.6h1.2v5.6
			c0,0.8-0.2,1.4-0.7,1.8c-0.5,0.4-1.1,0.7-1.9,0.7c-0.4,0-0.8-0.1-1.2-0.3c-0.4-0.2-0.7-0.4-0.9-0.7l0.6-0.8
			c0.4,0.5,0.9,0.7,1.5,0.7c0.4,0,0.8-0.1,1-0.4s0.4-0.6,0.4-1v-0.4c-0.4,0.4-0.9,0.6-1.5,0.6c-0.7,0-1.2-0.3-1.7-0.8
			C27.6,65.7,27.4,65,27.4,64z M28.7,64.1c0,0.6,0.1,1,0.4,1.4c0.2,0.3,0.6,0.5,1,0.5c0.5,0,0.9-0.2,1.2-0.7v-2.6
			c-0.2-0.4-0.6-0.7-1.2-0.7c-0.4,0-0.8,0.2-1,0.5C28.8,63,28.7,63.5,28.7,64.1z"/>
		<path class="st1" d="M35.3,61.8c0.4-0.5,1-0.7,1.6-0.7c1.2,0,1.9,0.7,1.9,2.1V67h-1.3v-3.7c0-0.4-0.1-0.7-0.3-0.9
			c-0.2-0.2-0.4-0.2-0.8-0.2c-0.5,0-0.9,0.2-1.2,0.7V67H34v-8.2h1.3V61.8z"/>
		<path class="st1" d="M41.8,59.7v1.4h1v1h-1v3.2c0,0.2,0,0.4,0.1,0.5s0.2,0.1,0.5,0.1c0.2,0,0.3,0,0.5-0.1v1
			c-0.3,0.1-0.6,0.1-0.9,0.1c-1,0-1.5-0.6-1.5-1.7v-3.3h-1v-1h1v-1.4H41.8z"/>
		<path class="st1" d="M49.1,64.1c0,0.9-0.2,1.6-0.6,2.2c-0.4,0.5-1,0.8-1.7,0.8c-0.7,0-1.2-0.2-1.6-0.7L45.1,67H44v-8.2h1.3v3
			c0.4-0.4,0.9-0.7,1.5-0.7c0.7,0,1.3,0.3,1.7,0.8C48.9,62.4,49.1,63.1,49.1,64.1L49.1,64.1z M47.8,64c0-0.6-0.1-1.1-0.3-1.4
			c-0.2-0.3-0.5-0.5-1-0.5c-0.6,0-1,0.2-1.2,0.7v2.4c0.2,0.5,0.6,0.8,1.2,0.8c0.4,0,0.7-0.2,0.9-0.5c0.2-0.3,0.3-0.8,0.3-1.4V64z"/>
		<path class="st1" d="M50,64c0-0.6,0.1-1.1,0.3-1.5c0.2-0.5,0.5-0.8,1-1.1s0.9-0.4,1.4-0.4c0.8,0,1.4,0.3,1.9,0.8
			c0.5,0.5,0.8,1.2,0.8,2l0,0.3c0,0.6-0.1,1.1-0.3,1.5c-0.2,0.5-0.5,0.8-0.9,1c-0.4,0.2-0.9,0.4-1.4,0.4c-0.8,0-1.5-0.3-2-0.8
			S50,65,50,64L50,64z M51.3,64.1c0,0.6,0.1,1.1,0.4,1.4c0.2,0.3,0.6,0.5,1,0.5c0.4,0,0.8-0.2,1-0.5s0.4-0.8,0.4-1.5
			c0-0.6-0.1-1.1-0.4-1.4c-0.3-0.3-0.6-0.5-1-0.5c-0.4,0-0.8,0.2-1,0.5C51.4,62.9,51.3,63.4,51.3,64.1z"/>
		<path class="st1" d="M58.6,63.1l1.1-1.9h1.5L59.4,64l1.8,2.9h-1.4l-1.2-2l-1.2,2H56l1.8-2.9l-1.8-2.9h1.4L58.6,63.1z"/>
	</g>
	<polygon class="st2" points="23.7,50.1 38.9,50.1 38.9,53.1 18.8,53.1 18.8,32.8 21.5,32.8 21.5,50.1 	"/>
	<polygon class="st2" points="53.5,31.2 49.2,26.7 42.7,31.6 35.7,29.4 28.8,35 28.8,42.7 53.5,42.7 	"/>
	<path class="st2" d="M34.9,25.7c1.5,0,2.8-1.3,2.8-2.8c0-1.5-1.3-2.8-2.8-2.8s-2.8,1.3-2.8,2.8C32.1,24.5,33.4,25.7,34.9,25.7
		L34.9,25.7z"/>
	<path class="st2" d="M23.7,48h34.8v-23c-0.8,0.4-1.7,0.7-2.6,0.8v19.6H26.3V16h19.9c0.1-0.9,0.4-1.8,0.8-2.6H23.7L23.7,48z"/>
	<path class="st2" d="M48.2,17.2c0-3.6,2.9-6.5,6.5-6.5c3.6,0,6.5,2.9,6.5,6.5c0,3.6-2.9,6.5-6.5,6.5C51.1,23.7,48.2,20.8,48.2,17.2
		L48.2,17.2z"/>
	<g>
		<polygon class="st3" points="54.6,16 52.4,14 51.2,15.3 53.4,17.3 51.4,19.6 52.7,20.8 54.7,18.5 57,20.5 58.2,19.2 55.9,17.2 
			58,14.9 56.6,13.7 		"/>
	</g>
</g>
</svg>
