<svg xmlns="http://www.w3.org/2000/svg" viewBox="0 0 100 100" xmlns:v="https://vecta.io/nano"><path d="M84.4 19.4H15.6a4.95 4.95 0 0 0-5 5v51.3a4.95 4.95 0 0 0 5 5h68.8a4.95 4.95 0 0 0 5-5V24.4c0-2.7-2.2-5-5-5zm0 5v36.3l-9.8-9c-1.5-1.3-3.8-1.3-5.2.1l-10 10.1-19.6-23.4c-1.5-1.8-4.3-1.8-5.7 0L15.6 59.7V24.4h68.8zM63.1 37.5c0-3.8 3-6.9 6.9-6.9 3.8 0 6.9 3 6.9 6.9s-3 6.9-6.9 6.9c-3.7 0-6.9-3-6.9-6.9z" fill="#666"/><path d="M97.8 100h-95c-1.4 0-2.5-1.1-2.5-2.5v-95C.3 1.1 1.5 0 2.8 0h95c1.4 0 2.5 1.1 2.5 2.5v95c0 1.4-1.1 2.5-2.5 2.5zM2.8 1a1.54 1.54 0 0 0-1.5 1.5v95A1.54 1.54 0 0 0 2.8 99h95a1.54 1.54 0 0 0 1.5-1.5v-95A1.54 1.54 0 0 0 97.8 1h-95z" fill="#d2d2d2"/><path d="M98 100H2c-1.1 0-2-.9-2-2V2C0 .9.9 0 2 0h96c1.1 0 2 .9 2 2v96c0 1.1-.9 2-2 2z" opacity=".7" fill="#444"/><path d="M76.5 45.5h-53a.94.94 0 0 1-1-1v-2a.94.94 0 0 1 1-1h53a.94.94 0 0 1 1 1v2a.94.94 0 0 1-1 1zm5 6.3h-63a.94.94 0 0 1-1-1v-.5a.94.94 0 0 1 1-1h63a.94.94 0 0 1 1 1v.5c0 .5-.4 1-1 1zm0 4.3h-63a.94.94 0 0 1-1-1v-.5a.94.94 0 0 1 1-1h63a.94.94 0 0 1 1 1v.5a.94.94 0 0 1-1 1zm-8.2 4.1H26.7a.94.94 0 0 1-1-1h0a.94.94 0 0 1 1-1h46.5a.94.94 0 0 1 1 1h0c.1.6-.4 1-.9 1z" fill="#f8f8f8"/></svg>