<svg xmlns="http://www.w3.org/2000/svg" viewBox="0 0 100 100" xmlns:v="https://vecta.io/nano"><path d="M97.8 100h-95c-1.4 0-2.5-1.1-2.5-2.5v-95C.3 1.1 1.5 0 2.8 0h95c1.4 0 2.5 1.1 2.5 2.5v95c0 1.4-1.1 2.5-2.5 2.5zM2.8 1a1.54 1.54 0 0 0-1.5 1.5v95A1.54 1.54 0 0 0 2.8 99h95a1.54 1.54 0 0 0 1.5-1.5v-95A1.54 1.54 0 0 0 97.8 1h-95z" fill="#d2d2d2"/><path d="M81.1 41H53.4c-.3 0-.5-.3-.5-.8v-1.5c0-.5.2-.8.5-.8H81c.3 0 .5.3.5.8v1.5c.1.4-.1.8-.4.8zm6.1 5.4H53.5c-.3 0-.6-.3-.6-.8v-.4c0-.5.2-.8.6-.8h33.8c.3 0 .6.3.6.8v.5c-.1.3-.3.7-.7.7zm0 3.9H53.5c-.3 0-.6-.3-.6-.8v-.4c0-.5.2-.8.6-.8h33.8c.3 0 .6.3.6.8v.4c-.1.4-.3.8-.7.8zM46.5 36H15a2.26 2.26 0 0 0-2.3 2.3v23.4A2.26 2.26 0 0 0 15 64h31.4a2.26 2.26 0 0 0 2.3-2.3V38.3c0-1.2-1-2.3-2.2-2.3zm0 2.3v16.6L42 50.8a1.72 1.72 0 0 0-2.4.1L35 55.4l-8.9-10.7c-.7-.8-1.9-.8-2.6 0L15 54.4V38.3h31.5zm-9.7 6c0-1.7 1.4-3.2 3.2-3.2 1.7 0 3.2 1.4 3.2 3.2s-1.4 3.2-3.2 3.2c-1.8-.1-3.2-1.4-3.2-3.2zm35.8 10.3H53.2c-.2 0-.3-.3-.3-.8v-.4c0-.5.1-.8.3-.8h19.4c.2 0 .3.3.3.8v.4c0 .4-.1.8-.3.8z" fill="#bcc5cb"/></svg>