<svg xmlns="http://www.w3.org/2000/svg" viewBox="0 0 100 100" xmlns:v="https://vecta.io/nano"><path d="M81.1 19.7H19.5c-.7 0-1.2-.4-1.2-1v-2c0-.6.5-1 1.2-1h61.7c.7 0 1.2.4 1.2 1v2c-.1.5-.6 1-1.3 1zm.2 5.2h-62a.94.94 0 0 1-1-1v-.5a.94.94 0 0 1 1-1h62a.94.94 0 0 1 1 1v.6c0 .4-.4.9-1 .9zm0 3.9h-62a.94.94 0 0 1-1-1v-.5a.94.94 0 0 1 1-1h62a.94.94 0 0 1 1 1v.5c0 .5-.4 1-1 1zm-2.7 5.1H22c-2.3 0-4.1 1.8-4.1 4.1v42.2c0 2.3 1.8 4.1 4.1 4.1h56.6c2.3 0 4.1-1.8 4.1-4.1V38c0-2.2-1.8-4.1-4.1-4.1zm0 4.1v29.9l-8.1-7.4c-1.2-1.1-3.1-1.1-4.3.1L58 68.9 41.9 49.6a3.02 3.02 0 0 0-4.7 0L22 67.1V38h56.6zM61.1 48.8c0-3.1 2.5-5.7 5.7-5.7 3.1 0 5.7 2.5 5.7 5.7a5.63 5.63 0 0 1-5.7 5.7c-3.1 0-5.7-2.5-5.7-5.7z" fill="#bcc5cb"/><path d="M97.8 100h-95c-1.4 0-2.5-1.1-2.5-2.5v-95C.3 1.1 1.5 0 2.8 0h95c1.4 0 2.5 1.1 2.5 2.5v95c0 1.4-1.1 2.5-2.5 2.5zM2.8 1a1.54 1.54 0 0 0-1.5 1.5v95A1.54 1.54 0 0 0 2.8 99h95a1.54 1.54 0 0 0 1.5-1.5v-95A1.54 1.54 0 0 0 97.8 1h-95z" fill="#d2d2d2"/></svg>