<?xml version="1.0" encoding="utf-8"?>
<!-- Generator: Adobe Illustrator 26.3.1, SVG Export Plug-In . SVG Version: 6.00 Build 0)  -->
<svg version="1.1" id="Layer_1" xmlns="http://www.w3.org/2000/svg" xmlns:xlink="http://www.w3.org/1999/xlink" x="0px" y="0px"
	 viewBox="0 0 80 80" style="enable-background:new 0 0 80 80;" xml:space="preserve">
<style type="text/css">
	.st0{fill:#A1AEB5;}
	.st1{fill:#63666A;}
	.st2{fill:none;stroke:#B9BCBF;stroke-miterlimit:10;}
</style>
<g>
	<g>
		<path class="st0" d="M47.6,13.1c-2.9,0-5.9,1.1-8.1,3.3l-4.3,4.3c-1,1-1,2.6,0,3.6c1,1,2.6,1,3.6,0l4.3-4.3c2.5-2.5,6.5-2.5,9,0
			c2.5,2.5,2.5,6.5,0,9l-4.3,4.3c-1,1-1,2.6,0,3.6c1,1,2.6,1,3.6,0l4.3-4.3c4.4-4.4,4.4-11.7,0-16.2C53.5,14.2,50.6,13.1,47.6,13.1
			L47.6,13.1z"/>
		<path class="st0" d="M30.4,26.6c-0.7,0-1.3,0.3-1.7,0.8l-4.3,4.3c-4.4,4.4-4.4,11.7,0,16.2c4.4,4.4,11.7,4.4,16.2,0l4.3-4.3
			c1-1,1-2.6,0-3.6c-1-1-2.6-1-3.6,0L37,44.2c-2.5,2.5-6.5,2.5-9,0c-2.5-2.5-2.5-6.5,0-9l4.3-4.3C33.8,29.3,32.7,26.5,30.4,26.6
			L30.4,26.6z"/>
		<path class="st0" d="M46.2,23.3c-0.7,0-1.3,0.3-1.7,0.8L32.1,36.5c-1,1-1,2.6,0,3.6c1,1,2.6,1,3.6,0L48,27.7
			C49.6,26.1,48.5,23.3,46.2,23.3L46.2,23.3z"/>
	</g>
	<g>
		<path class="st1" d="M36.5,59v5.2c0,0.8-0.3,1.5-0.8,2c-0.5,0.5-1.2,0.7-2.1,0.7c-0.9,0-1.6-0.2-2.1-0.7c-0.5-0.5-0.8-1.1-0.8-2
			V59H32v5.2c0,0.5,0.1,0.9,0.4,1.2s0.7,0.4,1.2,0.4c1,0,1.6-0.6,1.6-1.7V59H36.5z"/>
		<path class="st1" d="M40.9,63.8h-1.5v3H38V59h2.8c0.9,0,1.6,0.2,2.1,0.6c0.5,0.4,0.7,1,0.7,1.8c0,0.5-0.1,1-0.4,1.3
			c-0.3,0.4-0.6,0.6-1.1,0.8l1.8,3.3v0.1h-1.5L40.9,63.8z M39.4,62.7h1.4c0.5,0,0.8-0.1,1.1-0.3c0.3-0.2,0.4-0.5,0.4-0.9
			c0-0.4-0.1-0.7-0.4-1c-0.2-0.2-0.6-0.3-1.1-0.4h-1.4V62.7z"/>
		<path class="st1" d="M46.3,65.7h3.6v1.1H45V59h1.4V65.7z"/>
	</g>
</g>
<path class="st2" d="M0.6,0.5h79v79h-79V0.5z"/>
</svg>
