<svg width="136" height="27" viewBox="0 0 136 27" fill="none" xmlns="http://www.w3.org/2000/svg">
<path d="M25.0002 15.2001L21.2002 10.5001L23.5002 8.6001L27.3002 13.3001L25.0002 15.2001Z" fill="white"/>
<path d="M23.5004 18.1001L21.2004 16.2001L25.0004 11.5001L27.3004 13.4001L23.5004 18.1001ZM9.20039 15.2001L6.90039 13.3001L10.7004 8.6001L13.0004 10.5001L9.20039 15.2001Z" fill="white"/>
<path d="M10.7 18.1L6.9 13.4L9.2 11.5L13 16.2L10.7 18.1ZM34.2 26.7H0V0H34.2V26.7ZM3.9 22.8H30.4V3.9H3.9V22.8ZM59 4.9L56 22.4C55.5 22.4 55.1 22.5 54.8 22.5H53.6C53.4143 22.51 53.2286 22.4794 53.0559 22.4103C52.8832 22.3412 52.7276 22.2353 52.6 22.1C52.3163 21.7595 52.142 21.3412 52.1 20.9L51.6 18.2L50.8 11.8L50 18.2L49.3 22.4C48.4361 22.4852 47.5679 22.5186 46.7 22.5C46.5291 22.5086 46.3586 22.4769 46.2022 22.4074C46.0459 22.338 45.9081 22.2326 45.8 22.1C45.5348 21.7866 45.3618 21.4058 45.3 21L43.9 13L42.7 5.7V5.4C42.7 5.3 42.7 5.1 42.8 5.1C42.9499 5.0093 43.1268 4.97392 43.3 5H45.6L46.8 13.2C47.1761 15.3489 47.4099 17.5203 47.5 19.7H47.7L48.3 13.2L49.4 6.5C49.387 6.28172 49.4586 6.06683 49.6 5.9C49.6615 5.82938 49.7389 5.7744 49.8258 5.73963C49.9128 5.70485 50.0068 5.69127 50.1 5.7H52.1L53.4 13.2C53.7429 15.3535 53.9765 17.5229 54.1 19.7H54.3L54.9 13.2L56 5.7C55.987 5.48172 56.0586 5.26683 56.2 5.1C56.2615 5.02938 56.3389 4.9744 56.4258 4.93963C56.5128 4.90485 56.6068 4.89127 56.7 4.9H59ZM66.72 5.55C67.4079 5.85432 67.972 6.38319 68.32 7.05C68.759 8.0224 68.9645 9.08401 68.92 10.15C68.92 12.25 68.52 13.65 67.62 14.55C66.6819 15.3703 65.4651 15.7997 64.22 15.75H64.02V22.05C64.02 22.25 64.02 22.35 63.92 22.45C63.82 22.55 63.52 22.55 63.12 22.55H61.32V5.55C61.32 5.35 61.32 5.25 61.42 5.15C61.52 5.05 61.62 5.05 61.82 5.05H64.22C65.078 5.05131 65.9275 5.22119 66.72 5.55ZM65.42 12.55C65.6687 11.6728 65.7701 10.7604 65.72 9.85C65.7538 9.23523 65.6513 8.62058 65.42 8.05C65.3433 7.87422 65.2177 7.72419 65.0581 7.61781C64.8986 7.51143 64.7118 7.45318 64.52 7.45H63.82V13.25H64.32C64.5546 13.2691 64.789 13.2111 64.9875 13.0847C65.1861 12.9584 65.338 12.7706 65.42 12.55Z" fill="white"/>
<path d="M75.9999 22.0001C75.3118 21.3262 74.8564 20.4504 74.6999 19.5001C74.3286 17.7587 74.1608 15.9802 74.1999 14.2001C74.1999 7.8001 75.8999 4.6001 79.1999 4.6001C80.1999 4.6001 80.7999 4.7001 81.0999 5.0001C81.2584 5.13584 81.3854 5.30466 81.4718 5.49469C81.5581 5.68473 81.6019 5.89136 81.5999 6.1001C81.5982 6.68988 81.4613 7.27143 81.1999 7.8001C80.8266 7.51899 80.3666 7.37746 79.8999 7.4001C79.4699 7.42676 79.0557 7.57158 78.7028 7.81861C78.3499 8.06563 78.0721 8.40527 77.8999 8.8001C77.2547 10.4537 76.9816 12.2291 77.0999 14.0001C77.0979 15.1364 77.1647 16.2718 77.2999 17.4001C77.3208 18.0149 77.5303 18.6083 77.8999 19.1001C78.056 19.2599 78.2427 19.3865 78.4489 19.4725C78.6551 19.5584 78.8765 19.6018 79.0999 19.6001C79.7588 19.6566 80.4197 19.5175 80.9999 19.2001C81.2379 19.7017 81.3739 20.2455 81.3999 20.8001C81.3911 21.0811 81.3136 21.3556 81.1741 21.5997C81.0346 21.8437 80.8375 22.0499 80.5999 22.2001C79.9213 22.5521 79.1639 22.7243 78.3999 22.7001C77.5479 22.7114 76.7121 22.4676 75.9999 22.0001ZM84.2999 22.4001C83.79 22.175 83.3684 21.7885 83.0999 21.3001C82.74 20.5173 82.5688 19.6611 82.5999 18.8001C82.4969 17.6736 82.7789 16.5456 83.3999 15.6001C83.6573 15.2989 83.9806 15.061 84.3448 14.905C84.709 14.7489 85.1042 14.6788 85.4999 14.7001C85.7702 14.6898 86.0404 14.7235 86.2999 14.8001L87.0999 15.1001V13.4001C87.1093 13.1514 87.0393 12.9062 86.8999 12.7001C86.6562 12.5624 86.3797 12.4933 86.0999 12.5001C85.5945 12.5175 85.0921 12.5845 84.5999 12.7001C84.0832 12.7606 83.578 12.8953 83.0999 13.1001C82.8618 12.5985 82.7259 12.0547 82.6999 11.5001C82.6843 11.3273 82.719 11.1536 82.7999 11.0001C82.8999 10.8001 82.8999 10.7001 82.9999 10.6001C83.4035 10.3647 83.8425 10.1959 84.2999 10.1001C85.0873 9.92621 85.8945 9.85894 86.6999 9.9001C87.1267 9.83734 87.5621 9.86739 87.9763 9.98819C88.3904 10.109 88.7737 10.3177 89.0999 10.6001C89.3747 10.9309 89.5786 11.3146 89.699 11.7274C89.8194 12.1403 89.8538 12.5734 89.7999 13.0001V14.2001L89.6999 22.2001C88.5869 22.7671 87.3482 23.0424 86.0999 23.0001C85.3999 22.7001 84.7999 22.6001 84.2999 22.4001ZM86.9999 20.1001V16.9001C86.7873 16.775 86.5464 16.7062 86.2999 16.7001C86.1572 16.6932 86.0156 16.7272 85.8915 16.798C85.7675 16.8689 85.6664 16.9737 85.5999 17.1001C85.3986 17.6078 85.3298 18.1584 85.3999 18.7001C85.383 19.1422 85.4509 19.5835 85.5999 20.0001C85.6999 20.3001 85.8999 20.4001 86.2999 20.4001C86.6999 20.4001 86.8999 20.3001 86.9999 20.1001ZM91.5999 10.8001C92.6168 10.0644 93.8449 9.6784 95.0999 9.7001C95.5553 9.6378 96.0178 9.74453 96.3999 10.0001C96.5147 10.1379 96.6005 10.2976 96.6521 10.4694C96.7036 10.6413 96.7199 10.8218 96.6999 11.0001C96.701 11.5475 96.5992 12.0903 96.3999 12.6001C96.1124 12.4862 95.8086 12.4187 95.4999 12.4001C95.2947 12.3843 95.0888 12.4187 94.8999 12.5001C94.7206 12.5774 94.5524 12.6783 94.3999 12.8001V22.0001C94.3999 22.2001 94.3999 22.3001 94.2999 22.4001C94.1999 22.5001 93.8999 22.5001 93.4999 22.5001H91.5999V10.8001ZM98.8999 22.2001C98.5733 21.9902 98.2967 21.7113 98.0894 21.383C97.8821 21.0548 97.7491 20.6852 97.6999 20.3001C97.3654 18.9266 97.2307 17.512 97.2999 16.1001C97.2999 11.8001 98.6999 9.6001 101.5 9.6001C102.279 9.55569 103.051 9.76632 103.7 10.2001C104.017 10.4202 104.287 10.7018 104.493 11.0282C104.699 11.3546 104.837 11.7191 104.9 12.1001C105.226 13.3731 105.36 14.6875 105.3 16.0001C105.3 18.4001 105 20.0001 104.3 21.1001C103.956 21.5961 103.49 21.9949 102.947 22.2578C102.404 22.5206 101.802 22.6385 101.2 22.6001C100.41 22.6984 99.6097 22.5592 98.8999 22.2001ZM101.8 20.1001C101.949 19.7141 102.05 19.311 102.1 18.9001C102.196 18.0035 102.229 17.1013 102.2 16.2001L102.1 13.5001C102.15 13.0769 102.043 12.6499 101.8 12.3001C101.741 12.196 101.653 12.1119 101.546 12.0584C101.439 12.005 101.318 11.9847 101.2 12.0001C100.9 12.0001 100.6 12.3001 100.5 12.9001C100.249 13.9811 100.148 15.0915 100.2 16.2001L100.3 19.0001C100.35 19.411 100.451 19.8141 100.6 20.2001C100.659 20.3042 100.747 20.3883 100.854 20.4418C100.961 20.4952 101.081 20.5155 101.2 20.5001C101.322 20.4773 101.438 20.4301 101.541 20.3613C101.644 20.2926 101.732 20.2037 101.8 20.1001ZM107.6 21.7001C107.027 20.8829 106.745 19.8967 106.8 18.9001V10.4001C106.8 10.2001 106.8 10.1001 106.9 10.0001C107 9.9001 107.3 9.9001 107.7 9.9001H109.6V19.0001C109.596 19.3116 109.664 19.6198 109.8 19.9001C109.9 20.1001 110.1 20.2001 110.5 20.2001C110.857 20.2088 111.207 20.1038 111.5 19.9001V10.3001C111.5 10.1001 111.5 10.0001 111.6 9.9001C111.7 9.8001 111.9 9.8001 112.4 9.8001H114.3V21.6001C113.768 21.9106 113.196 22.1461 112.6 22.3001C111.951 22.4974 111.278 22.5984 110.6 22.6001C110.064 22.6759 109.519 22.6346 109.001 22.4793C108.483 22.3239 108.005 22.0581 107.6 21.7001Z" fill="white"/>
<path d="M115.8 21.2C115.83 20.6643 116.002 20.1463 116.3 19.7C116.974 20.0647 117.735 20.2376 118.5 20.2C118.859 20.2239 119.214 20.1173 119.5 19.9C119.7 19.6823 119.808 19.3955 119.8 19.1C119.793 18.5725 119.577 18.0693 119.2 17.7L117 15.4C116.61 14.9982 116.304 14.5222 116.1 14C115.917 13.5903 115.815 13.1487 115.8 12.7C115.773 12.2649 115.85 11.8296 116.024 11.4299C116.198 11.0301 116.464 10.6772 116.8 10.4C117.736 9.75802 118.872 9.47407 120 9.60001C120.864 9.53211 121.729 9.7052 122.5 10.1C122.68 10.223 122.828 10.3868 122.932 10.578C123.036 10.7692 123.094 10.9823 123.1 11.2C123.109 11.4374 123.075 11.6745 123 11.9C122.9 12.1 122.8 12.4 122.6 12.5C121.926 12.1353 121.165 11.9624 120.4 12C119.6 12 119.2 12.3 119.2 12.8C119.188 12.8935 119.2 12.9886 119.235 13.0762C119.27 13.1637 119.327 13.2408 119.4 13.3C119.565 13.5612 119.767 13.797 120 14L121.8 15.9C122.191 16.3591 122.527 16.8625 122.8 17.4C123.014 17.9055 123.117 18.4513 123.1 19C123.12 19.4877 123.031 19.9737 122.841 20.4232C122.651 20.8727 122.364 21.2745 122 21.6C121.146 22.2699 120.086 22.6232 119 22.6C116.8 22.7 115.8 22.2 115.8 21.2Z" fill="white"/>
<path d="M131.2 19.3C131.332 19.9247 131.399 20.5614 131.4 21.2C131.4 21.7 131.1 22.1 130.4 22.3C129.602 22.6025 128.751 22.7386 127.9 22.7C127.348 22.73 126.796 22.6276 126.292 22.4015C125.788 22.1754 125.344 21.832 125 21.4C124.3 20.5 124 19 124 16.8C123.936 15.3093 124.139 13.8193 124.6 12.4C124.85 11.5515 125.378 10.8118 126.1 10.3C126.802 9.91377 127.601 9.74005 128.4 9.8C130.5 9.8 131.6 11.2 131.6 13.9C131.616 15.1069 131.516 16.3126 131.3 17.5C129.879 17.7337 128.439 17.8341 127 17.8C126.964 18.4255 127.102 19.0487 127.4 19.6C127.6 20 128 20.1 128.6 20.1C129.5 19.958 130.375 19.6886 131.2 19.3ZM127.2 12.9C126.956 13.7441 126.855 14.6227 126.9 15.5C127.539 15.5189 128.178 15.4516 128.8 15.3C128.901 14.8746 128.935 14.4359 128.9 14C128.929 13.4918 128.861 12.9827 128.7 12.5C128.636 12.3711 128.536 12.2641 128.411 12.1928C128.286 12.1216 128.143 12.0892 128 12.1C127.7 12.1 127.4 12.3 127.2 12.9ZM133.2 5.3C133.195 4.98852 133.264 4.68033 133.4 4.4C133.488 4.3024 133.596 4.22504 133.717 4.17325C133.838 4.12146 133.968 4.09647 134.1 4.1C134.4 4.1 135 4 135.9 4V21.9C135.9 22.1 135.9 22.2 135.8 22.3C135.7 22.4 135.5 22.4 135 22.4H133.2V5.3Z" fill="white"/>
</svg>
