<?xml version="1.0" encoding="UTF-8"?>
<svg width="1200pt" height="1200pt" version="1.1" viewBox="0 0 1200 1200" xmlns="http://www.w3.org/2000/svg">
 <path d="m882.55 633.95-13.508 250.45c-0.97266 9.6133-4.8711 17.305-11.688 23.07-6.8203 5.7695-15.098 8.1719-24.836 7.2109l-482.14-23.074c-9.7383-0.96094-17.773-4.3242-24.105-10.094-6.332-5.7695-9.0078-13.457-8.0352-23.074l2.9219-66.336-21.914 1.4453c-8.7656 0.96094-16.316-1.2031-22.648-6.4922-6.3281-5.2852-9.9805-11.777-10.957-19.469l-30.68-340.33c-0.97266-7.6914 1.2188-14.66 6.5742-20.91 5.3555-6.25 12.418-9.8555 21.184-10.816l354-28.328c-6.2695 14.074-10.781 28.875-13.527 44.375l-309.79 25.773c-9.7422 0-14.613 4.3281-14.613 12.98v1.4414l23.379 256.69 26.297-36.051 10.227-193.24c0.97656-8.6523 4.6289-16.102 10.957-22.352 6.332-6.25 14.367-9.375 24.109-9.375l226.45 11.23c0.73047 16.84 3.3555 32.949 7.8594 48.301l-208.01-9.0547c-9.7383 0-15.582 4.3242-17.531 12.977v1.4414l-4.3828 90.852-10.227 184.59v10.094l8.7656-10.094 149.02-157.19c5.8438-5.7695 12.66-8.6523 20.453-8.6523 8.7656 0 15.582 3.3633 20.453 10.094l62.824 70.66 4.3828 4.3281c3.8945 3.8438 8.7656 5.7695 14.609 5.7695 2.9219 0 7.3047-1.4414 13.148-4.3281l24.84-17.305c4.8672-3.8438 10.227-5.7695 16.07-5.7695 7.793 0 13.148 2.4062 16.07 7.2109l39.449 47.59 68.668 79.316 8.7852-171.75c16.484-2.6328 32.191-7.2383 47.09-13.809zm-196.74-300.8c32.012-32.012 70.582-48.02 115.72-48.02 45.133 0 83.703 16.008 115.72 48.02 32.012 32.012 48.016 70.586 48.016 115.72s-16.004 83.707-48.016 115.72c-32.016 32.012-70.586 48.02-115.72 48.02-45.137 0-83.707-16.008-115.72-48.02-32.016-32.012-48.02-70.586-48.02-115.72s16.004-83.707 48.02-115.72zm199.95 132.25v-33.062h-67.699v-67.699h-33.062v67.699h-67.703v33.062h67.703v67.699h33.062v-67.699z" fill="#fff"/>
</svg>
