<?xml version="1.0" encoding="utf-8"?>
<!-- Generator: Adobe Illustrator 26.3.1, SVG Export Plug-In . SVG Version: 6.00 Build 0)  -->
<svg version="1.1" id="Layer_1" xmlns="http://www.w3.org/2000/svg" xmlns:xlink="http://www.w3.org/1999/xlink" x="0px" y="0px"
	 viewBox="0 0 101 75" style="enable-background:new 0 0 101 75;" xml:space="preserve">
<style type="text/css">
	.st0{fill:none;stroke:#B8BCBF;stroke-miterlimit:10;}
	.st1{fill:#BDC5CB;}
	.st2{fill:#A0ADB5;}
	.st3{fill:#D5D8DB;}
	.st4{fill:#97A3AA;}
</style>
<path class="st0" d="M0.5,0.5h100v74H0.5V0.5z"/>
<g>
	<rect x="19.6" y="26.2" class="st1" width="18.8" height="17.2"/>
	<rect x="41.1" y="26.2" class="st1" width="18.8" height="17.2"/>
	<rect x="62.6" y="26.2" class="st1" width="18.8" height="17.2"/>
	<path class="st2" d="M90.4,34.8l-0.5-0.5l-3.7-3.7l-1.1,1.1l3.2,3.2l-3.2,3.2l1.1,1.1l3.7-3.7C89.9,35.2,90.4,34.8,90.4,34.8z"/>
	<path class="st2" d="M11.1,35.2l3.7,3.7l1.1-1.1l-3.1-3.1l3.2-3.2l-1.2-1.2l-3.7,3.7l-0.5,0.5C10.6,34.8,11.1,35.2,11.1,35.2z"/>
	<g>
		<circle class="st3" cx="46.5" cy="47.2" r="1.6"/>
		<circle class="st4" cx="50.5" cy="47.2" r="1.6"/>
		<circle class="st3" cx="54.5" cy="47.2" r="1.6"/>
	</g>
</g>
</svg>
