<?xml version="1.0" encoding="utf-8"?>
<!-- Generator: Adobe Illustrator 26.3.1, SVG Export Plug-In . SVG Version: 6.00 Build 0)  -->
<svg version="1.1" id="Layer_1" xmlns="http://www.w3.org/2000/svg" xmlns:xlink="http://www.w3.org/1999/xlink" x="0px" y="0px"
	 viewBox="0 0 101 75" style="enable-background:new 0 0 101 75;" xml:space="preserve">
<style type="text/css">
	.st0{fill:none;stroke:#B8BCBF;stroke-miterlimit:10;}
	.st1{fill:#BDC5CB;}
	.st2{fill:#FFFFFF;}
</style>
<path class="st0" d="M0.5,0.5h100v74H0.5V0.5z"/>
<g>
	<rect x="14.6" y="50.9" class="st1" width="13.1" height="10.8"/>
	<rect x="14.5" y="13.3" class="st1" width="71.8" height="35.9"/>
	<rect x="29.3" y="50.9" class="st1" width="13.1" height="10.8"/>
	<rect x="44" y="50.9" class="st1" width="13.1" height="10.8"/>
	<rect x="58.6" y="50.9" class="st1" width="13.1" height="10.8"/>
	<rect x="73.4" y="50.9" class="st1" width="13.1" height="10.8"/>
	<g>
		<g>
			<path class="st2" d="M80,35.9c-2.5,0-4.6-2.1-4.6-4.6s2.1-4.6,4.6-4.6s4.6,2.1,4.6,4.6S82.5,35.9,80,35.9z M80,27.6
				c-2,0-3.7,1.6-3.7,3.7S77.9,35,80,35c2.1,0,3.7-1.6,3.7-3.7S82.1,27.6,80,27.6z"/>
		</g>
		<path class="st2" d="M81.8,31.2l-0.4-0.4l-2.5-2.5l-0.7,0.7l2.2,2.2l-2.2,2.2l0.7,0.7l2.5-2.5C81.4,31.6,81.8,31.2,81.8,31.2z"/>
	</g>
	<g>
		<g>
			<path class="st2" d="M16.2,31.3c0-2.5,2.1-4.6,4.6-4.6s4.6,2.1,4.6,4.6s-2.1,4.6-4.6,4.6C18.2,35.9,16.2,33.8,16.2,31.3z
				 M17.1,31.3c0,2,1.6,3.7,3.7,3.7s3.7-1.6,3.7-3.7s-1.6-3.7-3.7-3.7S17.1,29.3,17.1,31.3z"/>
		</g>
		<path class="st2" d="M19.3,31.8l2.5,2.5l0.7-0.7l-2.2-2.2l2.2-2.2l-0.7-0.7l-2.5,2.5l-0.4,0.4C18.9,31.2,19.3,31.6,19.3,31.8z"/>
	</g>
</g>
</svg>
